<svg viewBox="0 0 1e3 1e3" xmlns="http://www.w3.org/2000/svg">
<path transform="translate(-13 859) scale(1 -1)" d="m552 740v-20q0-20-4-34-2-12-10-24-4-10-6-14 0 0 36-1t88-1h126l-2 10v8l20 2q20 0 42 2h18l6-28q6-28 10-46 6-18 12-30t6-14-6 0q-6 0-22 8-18 6-32 15t-26 23l-12 12h-594l-12-10q-12-12-34-22t-32-14q-8-2-8 1t4 11 12 32q10 26 12 46 6 26 6 26 0 4 24 2t42-2h16l-2-10q-2-12-4-16v-6h120l120 2 2 46v46h42zm-118-252q-2-2-40-32-26-20-48-31t-54-21-62-18q-32-6-44-8t-12 3 2 7q0 2 25 15t49 29q24 14 44 28 18 12 40 30 20 16 46 38t26 22 20-22 21-26-13-14zm246 6q18-14 48-36 32-22 54-36 24-14 44-24 18-8 19-13t0-7-19 2q-18 2-50 10-34 8-56 16-24 8-42 17t-34 21q-18 12-44 32-26 22-26 25t19 26 20 23 24-20 43-36zm116-198v-20l-2-18-124-2h-124v-80q-2-80-4-98-4-18-10-30t-14-22l-8-8 200-2h202v-38h-798v40h342v238h-104l-104 2-2 18v20h276z"/>
</svg>
