<svg viewBox="0 0 1e3 1e3" xmlns="http://www.w3.org/2000/svg">
<path transform="translate(-12 860) scale(1 -1)" d="m298 750 2-16v-14h426v30h88v-156q0-152-2-198-2-44-8-58t-14-22-22-15-28-7h-14v50h-170v-146h274v-38h-274v-56q0-56-6-70-4-12-8-18-4-4-4-6t186-2l188-2v-36h-800v36l178 2h178v152h-274v38h274v146h-176l-4-10q-6-10-14-20-10-10-20-14-12-6-28-6l-16-2v162q0 164 2 228v68h44zm0-134v-66h170v132h-84q-82 0-84-1t-2-65zm258 0v-66h170v132h-84q-82 0-84-1t-2-65zm-258-234h170v130h-170zm258 0h84l84 2v64l2 64h-170z"/>
</svg>
