<svg xmlns="http://www.w3.org/2000/svg" viewBox="0 0 256 256">
    <path transform="scale(1, -1) translate(0, -256)" d="M136 216 137 217Q148 211 166 199Q162 190 156 181H210V171H150Q143 146 118 123Q144 123 170 133Q165 147 166 162H167Q186 133 202 129Q196 117 196 102Q196 99 196 99Q178 111 171 131Q150 107 98 101Q101 110 96 125Q103 122 111 123Q128 151 128 171H90V181H150Q141 198 136 216ZM48 210H49Q73 189 82 179Q81 173 74 155Q63 170 48 210ZM96 159H98Q93 136 68 21Q81 0 82 0Q78 -13 70 -28Q55 2 42 50L43 51Q57 34 58 33Q59 32 90 140Q93 150 96 159ZM42 144H43Q56 133 75 115Q67 99 63 94Q51 118 42 144ZM106 45V99H126V61Q126 17 90 -32H82Q105 0 106 45ZM156 -28H136V99H156ZM191 -30H182Q165 -31 166 -8V99H186V-3Q185 -11 192 -11Q196 -12 197 -1L202 39H206L205 5H211V-10Q211 -30 191 -30Z"/>
    </svg>