<svg viewBox="0 0 1e3 1e3" xmlns="http://www.w3.org/2000/svg">
<path transform="translate(-11 859) scale(1 -1)" d="m574 810q12-4 28-16t22-22q10-12 18-24 8-14 6-15t-40-27-38-26q0 2-38 56-36 56-37 58t11 10q12 10 20 12t22 0q12 0 26-6zm2-212t-3-3-8-9-11-10q-24-22-45-39t-39-33q-20-14-44-28l-24-14h354l-6 8q-4 8-20 28-12 18-30 40l-18 20 14 2q14 0 29-5t29-13q16-10 28-22 14-12 26-25t26-33q18-20 32-44l16-26h-46q-46 0-47 1t-7 15l-4 14-222 2h-222l-2 18q0 16-4 17t12 13q2 2 6 4 22 16 46 38 24 20 42 40 18 18 32 36 12 18 16 24 6 8 6 8t43-11 45-13zm-140-226v-122q0-122-4-144t-10-42-16-38q-10-20-18-32t-26-30q-16-18-36-32-16-12-34-20-16-8-16-8-2 0-2 13t8 19q12 8 18 14 14 12 22 24 10 12 20 30 6 14 12 30 4 12 7 33t3 163v142h36zm170 0v-416l-6-12q-4-12-14-24-8-10-20-15t-22-3h-12v470h38zm156 0v-358l44-2h44l16-8q14-8 22-19t10-19q4-10 2-18v-10h-212v434h38zm-516-174v-92q0-94-2-110-4-18-10-30-6-10-13-19t-19-17q-14-6-28-6h-14v274h42zm622 460 2-18h-568v38h566zm-588-26h-160v40h160zm0-228h-160v40h160z"/>
</svg>
