<svg xmlns="http://www.w3.org/2000/svg" viewBox="0 0 256 256">
    <path transform="scale(1, -1) translate(0, -256)" d="M118 183V201H58V211H198V201H137V183H192V191H210V153Q209 153 208 154Q206 156 203 156Q200 156 195 147Q192 143 192 143V173H175L180 168L163 147Q164 146 168 144Q182 138 188 135Q189 128 185 117H184Q162 133 137 152V121H118V153Q97 128 64 119Q62 130 58 141Q74 136 90 140Q83 153 77 173H62V151H43V189H62V183ZM118 157V173H82Q91 165 100 157Q96 149 92 141Q107 147 118 157ZM154 151 172 173H137V157Q147 154 154 151ZM42 83V93H74V115H93V93H116V83H93V67Q99 61 109 53Q112 50 116 47Q116 42 112 28Q112 27 112 27H111Q106 31 95 54Q93 58 93 60V-32H74V35Q57 12 46 0H40Q62 37 74 83ZM140 -32H121V113H140V105H180V111H199V-32H180V-12H140ZM140 59V35H174V25H140V-2H180V95H140V69H174V59Z"/>
    </svg>